<svg xmlns="http://www.w3.org/2000/svg" style="display: none;">

    <symbol id="sun" viewBox="0 0 24 24" fill="none">
        <path d="M12 2V4M12 20V22M4 12H2M6.31412 6.31412L4.8999 4.8999M17.6859 6.31412L19.1001 4.8999M6.31412 17.69L4.8999 19.1042M17.6859 17.69L19.1001 19.1042M22 12H20M17 12C17 14.7614 14.7614 17 12 17C9.23858 17 7 14.7614 7 12C7 9.23858 9.23858 7 12 7C14.7614 7 17 9.23858 17 12Z" stroke="currentColor" stroke-width="2" stroke-linecap="round" stroke-linejoin="round"/>
    </symbol>


    <symbol id="shopping_cart" viewBox="0 0 24 24">
        <path d="M6 23.73l-3-2.122v-14.2l3 1.359v14.963zm2-14.855v15.125l13-1.954v-15.046l-13 1.875zm5.963-7.875c-2.097 0-3.958 2.005-3.962 4.266l-.001 1.683c0 .305.273.54.575.494.244-.037.425-.247.425-.494v-1.681c.003-1.71 1.416-3.268 2.963-3.268.537 0 1.016.195 1.384.564.422.423.654 1.035.653 1.727v1.747c0 .305.273.54.575.494.243-.037.423-.246.423-.492l.002-1.749c.002-1.904-1.32-3.291-3.037-3.291zm-6.39 5.995c.245-.037.427-.247.427-.495v-2.232c.002-1.71 1.416-3.268 2.963-3.268l.162.015c.366-.283.765-.513 1.188-.683-.405-.207-.858-.332-1.35-.332-2.096 0-3.958 2.005-3.962 4.266v2.235c0 .306.272.538.572.494z"/>
    </symbol>

    <symbol id="moon-ico" viewBox="0 0 24 24">
        <path d="M22 15.8442C20.6866 16.4382 19.2286 16.7688 17.6935 16.7688C11.9153 16.7688 7.23116 12.0847 7.23116 6.30654C7.23116 4.77135 7.5618 3.3134 8.15577 2C4.52576 3.64163 2 7.2947 2 11.5377C2 17.3159 6.68414 22 12.4623 22C16.7053 22 20.3584 19.4742 22 15.8442Z" stroke="currentColor" stroke-width="2" stroke-linecap="round" stroke-linejoin="round"/>

    </symbol>

    <symbol id="facebook" viewBox="0 0 24 24">
        <path d="M9 8h-3v4h3v12h5v-12h3.642l.358-4h-4v-1.667c0-.955.192-1.333 1.115-1.333h2.885v-5h-3.808c-3.596 0-5.192 1.583-5.192 4.615v3.385z"  fill="currentColor"/>
    </symbol>

    <symbol id="google" viewBox="0 0 24 24">
        <g>
            <path fill="none" d="M0 0h24v24H0z"/>
            <path d="M3.064 7.51A9.996 9.996 0 0 1 12 2c2.695 0 4.959.99 6.69 2.605l-2.867 2.868C14.786 6.482 13.468 5.977 12 5.977c-2.605 0-4.81 1.76-5.595 4.123-.2.6-.314 1.24-.314 1.9 0 .66.114 1.3.314 1.9.786 2.364 2.99 4.123 5.595 4.123 1.345 0 2.49-.355 3.386-.955a4.6 4.6 0 0 0 1.996-3.018H12v-3.868h9.418c.118.654.182 1.336.182 2.045 0 3.046-1.09 5.61-2.982 7.35C16.964 21.105 14.7 22 12 22A9.996 9.996 0 0 1 2 12c0-1.614.386-3.14 1.064-4.49z"/>
        </g>
    </symbol>

    <symbol id="location" viewBox="0 0 24 24">
        <path d="M12 3c2.131 0 4 1.73 4 3.702 0 2.05-1.714 4.941-4 8.561-2.286-3.62-4-6.511-4-8.561 0-1.972 1.869-3.702 4-3.702zm0-2c-3.148 0-6 2.553-6 5.702 0 3.148 2.602 6.907 6 12.298 3.398-5.391 6-9.15 6-12.298 0-3.149-2.851-5.702-6-5.702zm0 8c-1.105 0-2-.895-2-2s.895-2 2-2 2 .895 2 2-.895 2-2 2zm8 6h-3.135c-.385.641-.798 1.309-1.232 2h3.131l.5 1h-4.264l-.344.544-.289.456h.558l.858 2h-7.488l.858-2h.479l-.289-.456-.343-.544h-2.042l-1.011-1h2.42c-.435-.691-.848-1.359-1.232-2h-3.135l-4 8h24l-4-8zm-12.794 6h-3.97l1.764-3.528 1.516 1.528h1.549l-.859 2zm8.808-2h3.75l1 2h-3.892l-.858-2z"/>
    </symbol>

    <symbol id="instagram" viewBox="0 0 24 24">
        <path d="M12 2.163c3.204 0 3.584.012 4.85.07 3.252.148 4.771 1.691 4.919 4.919.058 1.265.069 1.645.069 4.849 0 3.205-.012 3.584-.069 4.849-.149 3.225-1.664 4.771-4.919 4.919-1.266.058-1.644.07-4.85.07-3.204 0-3.584-.012-4.849-.07-3.26-.149-4.771-1.699-4.919-4.92-.058-1.265-.07-1.644-.07-4.849 0-3.204.013-3.583.07-4.849.149-3.227 1.664-4.771 4.919-4.919 1.266-.057 1.645-.069 4.849-.069zm0-2.163c-3.259 0-3.667.014-4.947.072-4.358.2-6.78 2.618-6.98 6.98-.059 1.281-.073 1.689-.073 4.948 0 3.259.014 3.668.072 4.948.2 4.358 2.618 6.78 6.98 6.98 1.281.058 1.689.072 4.948.072 3.259 0 3.668-.014 4.948-.072 4.354-.2 6.782-2.618 6.979-6.98.059-1.28.073-1.689.073-4.948 0-3.259-.014-3.667-.072-4.947-.196-4.354-2.617-6.78-6.979-6.98-1.281-.059-1.69-.073-4.949-.073zm0 5.838c-3.403 0-6.162 2.759-6.162 6.162s2.759 6.163 6.162 6.163 6.162-2.759 6.162-6.163c0-3.403-2.759-6.162-6.162-6.162zm0 10.162c-2.209 0-4-1.79-4-4 0-2.209 1.791-4 4-4s4 1.791 4 4c0 2.21-1.791 4-4 4zm6.406-11.845c-.796 0-1.441.645-1.441 1.44s.645 1.44 1.441 1.44c.795 0 1.439-.645 1.439-1.44s-.644-1.44-1.439-1.44z"/>
    </symbol>

    <symbol id="key" viewBox="0 0 24 24" fill='none'>
        <path d="M17 8.99994C17 8.48812 16.8047 7.9763 16.4142 7.58579C16.0237 7.19526 15.5118 7 15 7M15 15C18.3137 15 21 12.3137 21 9C21 5.68629 18.3137 3 15 3C11.6863 3 9 5.68629 9 9C9 9.27368 9.01832 9.54308 9.05381 9.80704C9.11218 10.2412 9.14136 10.4583 9.12172 10.5956C9.10125 10.7387 9.0752 10.8157 9.00469 10.9419C8.937 11.063 8.81771 11.1823 8.57913 11.4209L3.46863 16.5314C3.29568 16.7043 3.2092 16.7908 3.14736 16.8917C3.09253 16.9812 3.05213 17.0787 3.02763 17.1808C3 17.2959 3 17.4182 3 17.6627V19.4C3 19.9601 3 20.2401 3.10899 20.454C3.20487 20.6422 3.35785 20.7951 3.54601 20.891C3.75992 21 4.03995 21 4.6 21H7V19H9V17H11L12.5791 15.4209C12.8177 15.1823 12.937 15.063 13.0581 14.9953C13.1843 14.9248 13.2613 14.8987 13.4044 14.8783C13.5417 14.8586 13.7588 14.8878 14.193 14.9462C14.4569 14.9817 14.7263 15 15 15Z" stroke="currentColor" stroke-width="2" stroke-linecap="round" stroke-linejoin="round"/>
    </symbol>

    <symbol id="phone" viewBox="0 0 24 24" fill='none'>
        <path d="M8.38028 8.85335C9.07627 10.303 10.0251 11.6616 11.2266 12.8632C12.4282 14.0648 13.7869 15.0136 15.2365 15.7096C15.3612 15.7694 15.4235 15.7994 15.5024 15.8224C15.7828 15.9041 16.127 15.8454 16.3644 15.6754C16.4313 15.6275 16.4884 15.5704 16.6027 15.4561C16.9523 15.1064 17.1271 14.9316 17.3029 14.8174C17.9658 14.3864 18.8204 14.3864 19.4833 14.8174C19.6591 14.9316 19.8339 15.1064 20.1835 15.4561L20.3783 15.6509C20.9098 16.1824 21.1755 16.4481 21.3198 16.7335C21.6069 17.301 21.6069 17.9713 21.3198 18.5389C21.1755 18.8242 20.9098 19.09 20.3783 19.6214L20.2207 19.779C19.6911 20.3087 19.4263 20.5735 19.0662 20.7757C18.6667 21.0001 18.0462 21.1615 17.588 21.1601C17.1751 21.1589 16.8928 21.0788 16.3284 20.9186C13.295 20.0576 10.4326 18.4332 8.04466 16.0452C5.65668 13.6572 4.03221 10.7948 3.17124 7.76144C3.01103 7.19699 2.93092 6.91477 2.9297 6.50182C2.92833 6.0436 3.08969 5.42311 3.31411 5.0236C3.51636 4.66357 3.78117 4.39876 4.3108 3.86913L4.46843 3.7115C4.99987 3.18006 5.2656 2.91433 5.55098 2.76999C6.11854 2.48292 6.7888 2.48292 7.35636 2.76999C7.64174 2.91433 7.90747 3.18006 8.43891 3.7115L8.63378 3.90637C8.98338 4.25597 9.15819 4.43078 9.27247 4.60655C9.70347 5.26945 9.70347 6.12403 9.27247 6.78692C9.15819 6.96269 8.98338 7.1375 8.63378 7.4871C8.51947 7.60142 8.46231 7.65857 8.41447 7.72538C8.24446 7.96281 8.18576 8.30707 8.26748 8.58743C8.29048 8.66632 8.32041 8.72866 8.38028 8.85335Z" stroke="currentColor" stroke-width="2" stroke-linecap="round" stroke-linejoin="round"/>
    </symbol>

    <symbol id="email" viewBox="0 0 24 24" fill="none">
        <path d="M2 7L10.1649 12.7154C10.8261 13.1783 11.1567 13.4097 11.5163 13.4993C11.8339 13.5785 12.1661 13.5785 12.4837 13.4993C12.8433 13.4097 13.1739 13.1783 13.8351 12.7154L22 7M6.8 20H17.2C18.8802 20 19.7202 20 20.362 19.673C20.9265 19.3854 21.3854 18.9265 21.673 18.362C22 17.7202 22 16.8802 22 15.2V8.8C22 7.11984 22 6.27976 21.673 5.63803C21.3854 5.07354 20.9265 4.6146 20.362 4.32698C19.7202 4 18.8802 4 17.2 4H6.8C5.11984 4 4.27976 4 3.63803 4.32698C3.07354 4.6146 2.6146 5.07354 2.32698 5.63803C2 6.27976 2 7.11984 2 8.8V15.2C2 16.8802 2 17.7202 2.32698 18.362C2.6146 18.9265 3.07354 19.3854 3.63803 19.673C4.27976 20 5.11984 20 6.8 20Z" stroke="currentColor" stroke-width="2" stroke-linecap="round" stroke-linejoin="round"/>
    </symbol>

    <symbol id="user" viewBox="0 0 24 24" fill='none' >
        <path d="M20 21C20 19.6044 20 18.9067 19.8278 18.3389C19.44 17.0605 18.4395 16.06 17.1611 15.6722C16.5933 15.5 15.8956 15.5 14.5 15.5H9.5C8.10444 15.5 7.40665 15.5 6.83886 15.6722C5.56045 16.06 4.56004 17.0605 4.17224 18.3389C4 18.9067 4 19.6044 4 21M16.5 7.5C16.5 9.98528 14.4853 12 12 12C9.51472 12 7.5 9.98528 7.5 7.5C7.5 5.01472 9.51472 3 12 3C14.4853 3 16.5 5.01472 16.5 7.5Z" stroke="currentColor" stroke-width="2" stroke-linecap="round" stroke-linejoin="round"/>
    </symbol>

    <symbol id="twitter" viewBox="0 0 24 24" >
        <path d="M26.37,26l-8.795-12.822l0.015,0.012L25.52,4h-2.65l-6.46,7.48L11.28,4H4.33l8.211,11.971L12.54,15.97L3.88,26h2.65 l7.182-8.322L19.42,26H26.37z M10.23,6l12.34,18h-2.1L8.12,6H10.23z"></path>
    </symbol>

    <symbol id="trash" viewBox="0 0 24 24" fill="none">
        <path d="M16 6V5.2C16 4.0799 16 3.51984 15.782 3.09202C15.5903 2.71569 15.2843 2.40973 14.908 2.21799C14.4802 2 13.9201 2 12.8 2H11.2C10.0799 2 9.51984 2 9.09202 2.21799C8.71569 2.40973 8.40973 2.71569 8.21799 3.09202C8 3.51984 8 4.0799 8 5.2V6M10 11.5V16.5M14 11.5V16.5M3 6H21M19 6V17.2C19 18.8802 19 19.7202 18.673 20.362C18.3854 20.9265 17.9265 21.3854 17.362 21.673C16.7202 22 15.8802 22 14.2 22H9.8C8.11984 22 7.27976 22 6.63803 21.673C6.07354 21.3854 5.6146 20.9265 5.32698 20.362C5 19.7202 5 18.8802 5 17.2V6" stroke="currentColor" stroke-width="2" stroke-linecap="round" stroke-linejoin="round"/>
    </symbol>

    <symbol id="order" viewBox="0 0 24 24" fill="none">
        <path d="M20.5 7.27783L12 12.0001M12 12.0001L3.49997 7.27783M12 12.0001L12 21.5001M21 16.0586V7.94153C21 7.59889 21 7.42757 20.9495 7.27477C20.9049 7.13959 20.8318 7.01551 20.7354 6.91082C20.6263 6.79248 20.4766 6.70928 20.177 6.54288L12.777 2.43177C12.4934 2.27421 12.3516 2.19543 12.2015 2.16454C12.0685 2.13721 11.9315 2.13721 11.7986 2.16454C11.6484 2.19543 11.5066 2.27421 11.223 2.43177L3.82297 6.54288C3.52345 6.70928 3.37369 6.79248 3.26463 6.91082C3.16816 7.01551 3.09515 7.13959 3.05048 7.27477C3 7.42757 3 7.59889 3 7.94153V16.0586C3 16.4013 3 16.5726 3.05048 16.7254C3.09515 16.8606 3.16816 16.9847 3.26463 17.0893C3.37369 17.2077 3.52345 17.2909 3.82297 17.4573L11.223 21.5684C11.5066 21.726 11.6484 21.8047 11.7986 21.8356C11.9315 21.863 12.0685 21.863 12.2015 21.8356C12.3516 21.8047 12.4934 21.726 12.777 21.5684L20.177 17.4573C20.4766 17.2909 20.6263 17.2077 20.7354 17.0893C20.8318 16.9847 20.9049 16.8606 20.9495 16.7254C21 16.5726 21 16.4013 21 16.0586Z" stroke="currentColor" stroke-width="2" stroke-linecap="round" stroke-linejoin="round"/>
        <path d="M16.5 9.5L7.5 4.5" stroke="currentColor" stroke-width="2" stroke-linecap="round" stroke-linejoin="round"/>
    </symbol>

    <symbol id="settings" viewBox="0 0 24 24" fill="none">
        <path d="M5 21V14M5 10V3M12 21V12M12 8V3M19 21V16M19 12V3M2 14H8M9 8H15M16 16H22" stroke="currentColor" stroke-width="2" stroke-linecap="round" stroke-linejoin="round"/>
    </symbol>

    <symbol id="image" viewBox="0 0 24 24" fill="none">
        <path d="M4.27209 20.7279L10.8686 14.1314C11.2646 13.7354 11.4627 13.5373 11.691 13.4632C11.8918 13.3979 12.1082 13.3979 12.309 13.4632C12.5373 13.5373 12.7354 13.7354 13.1314 14.1314L19.6839 20.6839M14 15L16.8686 12.1314C17.2646 11.7354 17.4627 11.5373 17.691 11.4632C17.8918 11.3979 18.1082 11.3979 18.309 11.4632C18.5373 11.5373 18.7354 11.7354 19.1314 12.1314L22 15M10 9C10 10.1046 9.10457 11 8 11C6.89543 11 6 10.1046 6 9C6 7.89543 6.89543 7 8 7C9.10457 7 10 7.89543 10 9ZM6.8 21H17.2C18.8802 21 19.7202 21 20.362 20.673C20.9265 20.3854 21.3854 19.9265 21.673 19.362C22 18.7202 22 17.8802 22 16.2V7.8C22 6.11984 22 5.27976 21.673 4.63803C21.3854 4.07354 20.9265 3.6146 20.362 3.32698C19.7202 3 18.8802 3 17.2 3H6.8C5.11984 3 4.27976 3 3.63803 3.32698C3.07354 3.6146 2.6146 4.07354 2.32698 4.63803C2 5.27976 2 6.11984 2 7.8V16.2C2 17.8802 2 18.7202 2.32698 19.362C2.6146 19.9265 3.07354 20.3854 3.63803 20.673C4.27976 21 5.11984 21 6.8 21Z" stroke="currentColor" stroke-width="2" stroke-linecap="round" stroke-linejoin="round"/>
    </symbol>

    <symbol id="text" viewBox="0 0 24 24" fill="none">
        <path d="M4 7C4 6.06812 4 5.60218 4.15224 5.23463C4.35523 4.74458 4.74458 4.35523 5.23463 4.15224C5.60218 4 6.06812 4 7 4H17C17.9319 4 18.3978 4 18.7654 4.15224C19.2554 4.35523 19.6448 4.74458 19.8478 5.23463C20 5.60218 20 6.06812 20 7M9 20H15M12 4V20" stroke="currentColor" stroke-width="2" stroke-linecap="round" stroke-linejoin="round"/>
    </symbol>

    <symbol id="AI" viewBox="0 0 24 24" >
        <path d="M9 15C8.44771 15 8 15.4477 8 16C8 16.5523 8.44771 17 9 17C9.55229 17 10 16.5523 10 16C10 15.4477 9.55229 15 9 15Z" />
        <path d="M14 16C14 15.4477 14.4477 15 15 15C15.5523 15 16 15.4477 16 16C16 16.5523 15.5523 17 15 17C14.4477 17 14 16.5523 14 16Z" />
        <path fill-rule="evenodd" clip-rule="evenodd" d="M12 1C10.8954 1 10 1.89543 10 3C10 3.74028 10.4022 4.38663 11 4.73244V7H6C4.34315 7 3 8.34315 3 10V20C3 21.6569 4.34315 23 6 23H18C19.6569 23 21 21.6569 21 20V10C21 8.34315 19.6569 7 18 7H13V4.73244C13.5978 4.38663 14 3.74028 14 3C14 1.89543 13.1046 1 12 1ZM5 10C5 9.44772 5.44772 9 6 9H7.38197L8.82918 11.8944C9.16796 12.572 9.86049 13 10.618 13H13.382C14.1395 13 14.832 12.572 15.1708 11.8944L16.618 9H18C18.5523 9 19 9.44772 19 10V20C19 20.5523 18.5523 21 18 21H6C5.44772 21 5 20.5523 5 20V10ZM13.382 11L14.382 9H9.61803L10.618 11H13.382Z" />
        <path d="M1 14C0.447715 14 0 14.4477 0 15V17C0 17.5523 0.447715 18 1 18C1.55228 18 2 17.5523 2 17V15C2 14.4477 1.55228 14 1 14Z"/>
        <path d="M22 15C22 14.4477 22.4477 14 23 14C23.5523 14 24 14.4477 24 15V17C24 17.5523 23.5523 18 23 18C22.4477 18 22 17.5523 22 17V15Z" />
    </symbol>

    <symbol id="rotate" viewBox="0 0 24 24" fill="none">
        <path d="M2 10C2 10 4.00498 7.26822 5.63384 5.63824C7.26269 4.00827 9.5136 3 12 3C16.9706 3 21 7.02944 21 12C21 16.9706 16.9706 21 12 21C7.89691 21 4.43511 18.2543 3.35177 14.5M2 10V4M2 10H8" stroke="currentColor" stroke-width="2" stroke-linecap="round" stroke-linejoin="round"/>
    </symbol>

    <symbol id="star" viewBox="0 0 24 24">
        <path d="M11.2827 3.45332C11.5131 2.98638 11.6284 2.75291 11.7848 2.67831C11.9209 2.61341 12.0791 2.61341 12.2152 2.67831C12.3717 2.75291 12.4869 2.98638 12.7174 3.45332L14.9041 7.88328C14.9721 8.02113 15.0061 8.09006 15.0558 8.14358C15.0999 8.19096 15.1527 8.22935 15.2113 8.25662C15.2776 8.28742 15.3536 8.29854 15.5057 8.32077L20.397 9.03571C20.9121 9.11099 21.1696 9.14863 21.2888 9.27444C21.3925 9.38389 21.4412 9.5343 21.4215 9.68377C21.3988 9.85558 21.2124 10.0372 20.8395 10.4004L17.3014 13.8464C17.1912 13.9538 17.136 14.0076 17.1004 14.0715C17.0689 14.128 17.0487 14.1902 17.0409 14.2545C17.0321 14.3271 17.0451 14.403 17.0711 14.5547L17.906 19.4221C17.994 19.9355 18.038 20.1922 17.9553 20.3445C17.8833 20.477 17.7554 20.57 17.6071 20.5975C17.4366 20.6291 17.2061 20.5078 16.7451 20.2654L12.3724 17.9658C12.2361 17.8942 12.168 17.8584 12.0962 17.8443C12.0327 17.8318 11.9673 17.8318 11.9038 17.8443C11.832 17.8584 11.7639 17.8942 11.6277 17.9658L7.25492 20.2654C6.79392 20.5078 6.56341 20.6291 6.39297 20.5975C6.24468 20.57 6.11672 20.477 6.04474 20.3445C5.962 20.1922 6.00603 19.9355 6.09407 19.4221L6.92889 14.5547C6.95491 14.403 6.96793 14.3271 6.95912 14.2545C6.95132 14.1902 6.93111 14.128 6.89961 14.0715C6.86402 14.0076 6.80888 13.9538 6.69859 13.8464L3.16056 10.4004C2.78766 10.0372 2.60121 9.85558 2.57853 9.68377C2.55879 9.5343 2.60755 9.38389 2.71125 9.27444C2.83044 9.14863 3.08797 9.11099 3.60304 9.03571L8.49431 8.32077C8.64642 8.29854 8.72248 8.28742 8.78872 8.25662C8.84736 8.22935 8.90016 8.19096 8.94419 8.14358C8.99391 8.09006 9.02793 8.02113 9.09597 7.88328L11.2827 3.45332Z" />
    </symbol>

    <symbol id="check" viewBox="0 0 24 24" fill="none">
        <path d="M20 6L9 17L4 12" stroke="currentColor" stroke-width="2" stroke-linecap="round" stroke-linejoin="round"/>
    </symbol>

    <symbol id="info" viewBox="0 0 24 24" fill="none">
        <path d="M12 16V12M12 8H12.01M22 12C22 17.5228 17.5228 22 12 22C6.47715 22 2 17.5228 2 12C2 6.47715 6.47715 2 12 2C17.5228 2 22 6.47715 22 12Z" stroke="currentColor" stroke-width="2" stroke-linecap="round" stroke-linejoin="round"/>
    </symbol>

    <symbol id="card" viewBox="0 0 24 24" fill="none">
        <path d="M22 10H2M11 14H6M2 8.2L2 15.8C2 16.9201 2 17.4802 2.21799 17.908C2.40973 18.2843 2.71569 18.5903 3.09202 18.782C3.51984 19 4.07989 19 5.2 19L18.8 19C19.9201 19 20.4802 19 20.908 18.782C21.2843 18.5903 21.5903 18.2843 21.782 17.908C22 17.4802 22 16.9201 22 15.8V8.2C22 7.0799 22 6.51984 21.782 6.09202C21.5903 5.7157 21.2843 5.40974 20.908 5.21799C20.4802 5 19.9201 5 18.8 5L5.2 5C4.0799 5 3.51984 5 3.09202 5.21799C2.7157 5.40973 2.40973 5.71569 2.21799 6.09202C2 6.51984 2 7.07989 2 8.2Z" stroke="currentColor" stroke-width="2" stroke-linecap="round" stroke-linejoin="round"/>
    </symbol>

    <symbol id="check-circle" viewBox="0 0 24 24" fill="none">
        <path d="M7.5 12L10.5 15L16.5 9M22 12C22 17.5228 17.5228 22 12 22C6.47715 22 2 17.5228 2 12C2 6.47715 6.47715 2 12 2C17.5228 2 22 6.47715 22 12Z" stroke="currentColor" stroke-width="2" stroke-linecap="round" stroke-linejoin="round"/>
    </symbol>

    <symbol id="plus" viewBox="0 0 24 24" fill="none">
        <path d="M12 5V19M5 12H19" stroke="currentColor" stroke-width="2" stroke-linecap="round" stroke-linejoin="round"/>
    </symbol>

    <symbol id="apple" viewBox="0 0 16 16">
        <g fill-rule="evenodd"><path d="M11.6218,4.7571c-0.0193291,-2.02332 1.65317,-2.99846 1.72865,-3.04467c-0.939167,-1.37684 -2.40442,-1.56532 -2.92624,-1.58735c-1.24564,-0.125075 -2.431,0.734352 -3.06342,0.734352c-0.630702,0 -1.60726,-0.7153 -2.63953,-0.694961c-1.35921,0.0188997 -2.61125,0.789063 -3.31105,2.00483c-1.41025,2.44865 -0.360481,6.07511 1.01479,8.0616c0.671226,0.970026 1.47351,2.06429 2.52553,2.02476c1.0148,-0.0397892 1.39689,-0.654453 2.62078,-0.654453c1.22488,0 1.56888,0.654453 2.64224,0.634268c1.08898,-0.0196037 1.78139,-0.990762 2.44848,-1.96475c0.771157,-1.12822 1.0887,-2.22035 1.10719,-2.27707c-0.0234604,-0.0085233 -2.12539,-0.815491 -2.14743,-3.23655v0Z" transform="translate(.745 3.743)"></path><path d="M2.49696,2.55553c0.559066,-0.677623 0.934193,-1.61793 0.831414,-2.55553c-0.804695,0.031969 -1.78039,0.537152 -2.3568,1.21266c-0.51813,0.599437 -0.97158,1.55665 -0.848624,2.47462c0.897671,0.0697992 1.81466,-0.455431 2.37401,-1.13175v0Z" transform="translate(7.857)"></path></g>
    </symbol>

    <symbol id="bank" viewBox="0 0 24 24">
        <path d="M5 9.00002V17M9.5 9.00002V17M14.5 9.00002V17M19 9.00002V17M3 18.6L3 19.4C3 19.9601 3 20.2401 3.10899 20.454C3.20487 20.6422 3.35785 20.7952 3.54601 20.891C3.75992 21 4.03995 21 4.6 21H19.4C19.9601 21 20.2401 21 20.454 20.891C20.6422 20.7952 20.7951 20.6422 20.891 20.454C21 20.2401 21 19.9601 21 19.4V18.6C21 18.04 21 17.7599 20.891 17.546C20.7951 17.3579 20.6422 17.2049 20.454 17.109C20.2401 17 19.9601 17 19.4 17H4.6C4.03995 17 3.75992 17 3.54601 17.109C3.35785 17.2049 3.20487 17.3579 3.10899 17.546C3 17.7599 3 18.04 3 18.6ZM11.6529 3.07715L4.25291 4.7216C3.80585 4.82094 3.58232 4.87062 3.41546 4.99082C3.26829 5.09685 3.15273 5.24092 3.08115 5.40759C3 5.59654 3 5.82553 3 6.28349L3 7.40002C3 7.96007 3 8.2401 3.10899 8.45401C3.20487 8.64217 3.35785 8.79515 3.54601 8.89103C3.75992 9.00002 4.03995 9.00002 4.6 9.00002H19.4C19.9601 9.00002 20.2401 9.00002 20.454 8.89103C20.6422 8.79515 20.7951 8.64217 20.891 8.45401C21 8.2401 21 7.96007 21 7.40002V6.2835C21 5.82553 21 5.59655 20.9188 5.40759C20.8473 5.24092 20.7317 5.09685 20.5845 4.99082C20.4177 4.87062 20.1942 4.82094 19.7471 4.7216L12.3471 3.07715C12.2176 3.04837 12.1528 3.03398 12.0874 3.02824C12.0292 3.02314 11.9708 3.02314 11.9126 3.02824C11.8472 3.03398 11.7824 3.04837 11.6529 3.07715Z" stroke="currentColor" stroke-width="2" stroke-linecap="round" stroke-linejoin="round"/>
    </symbol>

    <symbol id="laptop" viewBox="0 0 24 24" fill='none'>
        <path d="M3 16V7.2C3 6.07989 3 5.51984 3.21799 5.09202C3.40973 4.71569 3.71569 4.40973 4.09202 4.21799C4.51984 4 5.0799 4 6.2 4H17.8C18.9201 4 19.4802 4 19.908 4.21799C20.2843 4.40973 20.5903 4.71569 20.782 5.09202C21 5.51984 21 6.0799 21 7.2V16H15.6627C15.4182 16 15.2959 16 15.1808 16.0276C15.0787 16.0521 14.9812 16.0925 14.8917 16.1474C14.7908 16.2092 14.7043 16.2957 14.5314 16.4686L14.4686 16.5314C14.2957 16.7043 14.2092 16.7908 14.1083 16.8526C14.0188 16.9075 13.9213 16.9479 13.8192 16.9724C13.7041 17 13.5818 17 13.3373 17H10.6627C10.4182 17 10.2959 17 10.1808 16.9724C10.0787 16.9479 9.98119 16.9075 9.89172 16.8526C9.7908 16.7908 9.70432 16.7043 9.53137 16.5314L9.46863 16.4686C9.29568 16.2957 9.2092 16.2092 9.10828 16.1474C9.01881 16.0925 8.92127 16.0521 8.81923 16.0276C8.70414 16 8.58185 16 8.33726 16H3ZM3 16C2.44772 16 2 16.4477 2 17V17.3333C2 17.9533 2 18.2633 2.06815 18.5176C2.25308 19.2078 2.79218 19.7469 3.48236 19.9319C3.7367 20 4.04669 20 4.66667 20H19.3333C19.9533 20 20.2633 20 20.5176 19.9319C21.2078 19.7469 21.7469 19.2078 21.9319 18.5176C22 18.2633 22 17.9533 22 17.3333C22 17.0233 22 16.8683 21.9659 16.7412C21.8735 16.3961 21.6039 16.1265 21.2588 16.0341C21.1317 16 20.9767 16 20.6667 16H20" stroke="currentColor" stroke-width="2" stroke-linecap="round" stroke-linejoin="round"/>
    </symbol>

    <symbol id="x-circle" viewBox="0 0 24 24" fill='none'>
        <path d="M15 9L9 15M9 9L15 15M22 12C22 17.5228 17.5228 22 12 22C6.47715 22 2 17.5228 2 12C2 6.47715 6.47715 2 12 2C17.5228 2 22 6.47715 22 12Z" stroke="currentColor" stroke-width="2" stroke-linecap="round" stroke-linejoin="round"/>
    </symbol>

    <symbol id="close" viewBox="0 0 24 24" fill='none'>
        <path d="M18 6L6 18M6 6L18 18" stroke="currentColor" stroke-width="2" stroke-linecap="round" stroke-linejoin="round"/>
    </symbol>

    <symbol id="menu" viewBox="0 0 24 24" fill='none'>
        <path d="M3 12H21M3 6H21M3 18H21" stroke="currentColor" stroke-width="2" stroke-linecap="round" stroke-linejoin="round"/>
    </symbol>

    <symbol id="edit" viewBox="0 0 24 24" fill='none'>
        <path d="M21 18L19.9999 19.094C19.4695 19.6741 18.7502 20 18.0002 20C17.2501 20 16.5308 19.6741 16.0004 19.094C15.4693 18.5151 14.75 18.1901 14.0002 18.1901C13.2504 18.1901 12.5312 18.5151 12 19.094M3.00003 20H4.67457C5.16376 20 5.40835 20 5.63852 19.9447C5.84259 19.8957 6.03768 19.8149 6.21663 19.7053C6.41846 19.5816 6.59141 19.4086 6.93732 19.0627L19.5001 6.49998C20.3285 5.67156 20.3285 4.32841 19.5001 3.49998C18.6716 2.67156 17.3285 2.67156 16.5001 3.49998L3.93729 16.0627C3.59139 16.4086 3.41843 16.5816 3.29475 16.7834C3.18509 16.9624 3.10428 17.1574 3.05529 17.3615C3.00003 17.5917 3.00003 17.8363 3.00003 18.3255V20Z" stroke="currentColor" stroke-width="2" stroke-linecap="round" stroke-linejoin="round"/>
    </symbol>

    <symbol id="upload" viewBox="0 0 24 24" fill='none'>
        <path d="M4 16.2422C2.79401 15.435 2 14.0602 2 12.5C2 10.1564 3.79151 8.23129 6.07974 8.01937C6.54781 5.17213 9.02024 3 12 3C14.9798 3 17.4522 5.17213 17.9203 8.01937C20.2085 8.23129 22 10.1564 22 12.5C22 14.0602 21.206 15.435 20 16.2422M8 16L12 12M12 12L16 16M12 12V21" stroke="currentColor" stroke-width="2" stroke-linecap="round" stroke-linejoin="round"/>
    </symbol>

    <symbol id="left" viewBox="0 0 24 24" fill='none'>
        <path d="M12 8L8 12M8 12L12 16M8 12H16M22 12C22 17.5228 17.5228 22 12 22C6.47715 22 2 17.5228 2 12C2 6.47715 6.47715 2 12 2C17.5228 2 22 6.47715 22 12Z" stroke="currentColor" stroke-width="2" stroke-linecap="round" stroke-linejoin="round"/>
    </symbol>

    <symbol id="right" viewBox="0 0 24 24" fill='none'>
        <path d="M12 16L16 12M16 12L12 8M16 12H8M22 12C22 17.5228 17.5228 22 12 22C6.47715 22 2 17.5228 2 12C2 6.47715 6.47715 2 12 2C17.5228 2 22 6.47715 22 12Z" stroke="currentColor" stroke-width="2" stroke-linecap="round" stroke-linejoin="round"/>
    </symbol>

    <symbol id="copy" viewBox="0 0 24 24" fill='none'>
        <path d="M8 8V5.2C8 4.0799 8 3.51984 8.21799 3.09202C8.40973 2.71569 8.71569 2.40973 9.09202 2.21799C9.51984 2 10.0799 2 11.2 2H18.8C19.9201 2 20.4802 2 20.908 2.21799C21.2843 2.40973 21.5903 2.71569 21.782 3.09202C22 3.51984 22 4.0799 22 5.2V12.8C22 13.9201 22 14.4802 21.782 14.908C21.5903 15.2843 21.2843 15.5903 20.908 15.782C20.4802 16 19.9201 16 18.8 16H16M5.2 22H12.8C13.9201 22 14.4802 22 14.908 21.782C15.2843 21.5903 15.5903 21.2843 15.782 20.908C16 20.4802 16 19.9201 16 18.8V11.2C16 10.0799 16 9.51984 15.782 9.09202C15.5903 8.71569 15.2843 8.40973 14.908 8.21799C14.4802 8 13.9201 8 12.8 8H5.2C4.0799 8 3.51984 8 3.09202 8.21799C2.71569 8.40973 2.40973 8.71569 2.21799 9.09202C2 9.51984 2 10.0799 2 11.2V18.8C2 19.9201 2 20.4802 2.21799 20.908C2.40973 21.2843 2.71569 21.5903 3.09202 21.782C3.51984 22 4.07989 22 5.2 22Z" stroke="currentColor" stroke-width="2" stroke-linecap="round" stroke-linejoin="round"/>
    </symbol>

    <symbol id="message" viewBox="0 0 24 24" fill='none'>
        <path d="M6.09436 11.2288C6.03221 10.8282 5.99996 10.4179 5.99996 10C5.99996 5.58172 9.60525 2 14.0526 2C18.4999 2 22.1052 5.58172 22.1052 10C22.1052 10.9981 21.9213 11.9535 21.5852 12.8345C21.5154 13.0175 21.4804 13.109 21.4646 13.1804C21.4489 13.2512 21.4428 13.301 21.4411 13.3735C21.4394 13.4466 21.4493 13.5272 21.4692 13.6883L21.8717 16.9585C21.9153 17.3125 21.9371 17.4895 21.8782 17.6182C21.8266 17.731 21.735 17.8205 21.6211 17.8695C21.4911 17.9254 21.3146 17.8995 20.9617 17.8478L17.7765 17.3809C17.6101 17.3565 17.527 17.3443 17.4512 17.3448C17.3763 17.3452 17.3245 17.3507 17.2511 17.3661C17.177 17.3817 17.0823 17.4172 16.893 17.4881C16.0097 17.819 15.0524 18 14.0526 18C13.6344 18 13.2237 17.9683 12.8227 17.9073M7.63158 22C10.5965 22 13 19.5376 13 16.5C13 13.4624 10.5965 11 7.63158 11C4.66668 11 2.26316 13.4624 2.26316 16.5C2.26316 17.1106 2.36028 17.6979 2.53955 18.2467C2.61533 18.4787 2.65322 18.5947 2.66566 18.6739C2.67864 18.7567 2.68091 18.8031 2.67608 18.8867C2.67145 18.9668 2.65141 19.0573 2.61134 19.2383L2 22L4.9948 21.591C5.15827 21.5687 5.24 21.5575 5.31137 21.558C5.38652 21.5585 5.42641 21.5626 5.50011 21.5773C5.5701 21.5912 5.67416 21.6279 5.88227 21.7014C6.43059 21.8949 7.01911 22 7.63158 22Z" stroke="currentColor" stroke-width="2" stroke-linecap="round" stroke-linejoin="round"/>
    </symbol>

    <!-- <symbol id="whatsapp" viewBox="0 0 24 24" fill='none'>
        <path d="M21 12.5c0-4.6-3.6-8.4-8.2-8.4-4.1 0-7.6 3.1-8.1 7.2-0.3 2.1 1.1 4.1 3.3 5.2-0.1 0-0.2 0-0.3 0.1-1.4 0.4-3.5 1.3-4.5 2.7-0.1 0.2-0.1 0.5 0 0.7 0.2 0.2 0.4 0.2 0.6 0.1 0.7-0.4 1.6-0.7 2.4-0.8 0.1 0 0.2 0 0.3 0 0.6 0 1.2 0 1.8 0 3.6 0 6.9-1.2 9.3-3.1 2.6-2.1 4.2-5.3 4.2-8.8z"></path>
        <path d="M13.2 7.5c-0.3-0.2-0.7-0.3-1.1-0.3-0.8 0-1.6 0.3-2.1 0.9-0.5 0.6-0.8 1.3-0.8 2.1 0 1.1 0.4 2.1 1.1 2.9 0.8 0.8 1.8 1.2 2.9 1.2 0.8 0 1.6-0.3 2.1-0.9 0.5-0.6 0.8-1.3 0.8-2.1 0-1.1-0.4-2.1-1.1-2.9z"></path>
    </symbol> -->

    <symbol id="messenger" viewBox="0 0 24 24" fill='none'>
        <g><path clip-rule="evenodd" d="M296.133,354.174c49.885-5.891,102.942-24.029,102.942-110.192   c0-24.49-8.624-44.448-22.67-59.869c2.266-5.89,9.515-28.114-2.734-58.947c0,0-18.139-5.898-60.759,22.669   c-18.139-4.983-38.09-8.163-56.682-8.163c-19.053,0-39.011,3.18-56.697,8.163c-43.082-28.567-61.22-22.669-61.22-22.669   c-12.241,30.833-4.983,53.057-2.718,58.947c-14.061,15.42-22.677,35.379-22.677,59.869c0,86.163,53.057,104.301,102.942,110.192   c-6.344,5.452-12.241,15.873-14.507,30.387c-12.702,5.438-45.808,15.873-65.758-18.592c0,0-11.795-21.31-34.012-22.669   c0,0-22.224-0.453-1.813,13.592c0,0,14.96,6.812,24.943,32.653c0,0,13.6,43.089,76.179,29.48v38.543   c0,5.906-4.53,12.702-15.865,10.89C96.139,438.977,32.2,354.626,32.2,255.77c0-123.807,100.216-224.022,224.03-224.022   c123.347,0,224.023,100.216,223.57,224.022c0,98.856-63.946,182.754-152.828,212.688c-11.342,2.266-15.873-4.53-15.873-10.89   V395.45C311.1,374.577,304.288,360.985,296.133,354.174L296.133,354.174z M512,256.23C512,114.73,397.263,0,256.23,0   C114.73,0,0,114.73,0,256.23C0,397.263,114.73,512,256.23,512C397.263,512,512,397.263,512,256.23L512,256.23z" fill="#0D2636" fill-rule="evenodd"/></g>
    </symbol>
</svg>